<svg version="1.1" xmlns="http://www.w3.org/2000/svg" xmlns:xlink="http://www.w3.org/1999/xlink" viewBox="0 0 512 512">
	<g>
		<path fill="#57B7EB" d="M71.7,386h392c13.4,0,24.3-10.9,24.3-24.3V138.3c0-13.4-10.9-24.3-24.3-24.3h-392C45.4,114,24,135.4,24,161.7v176.5C24,364.6,45.4,386,71.7,386z" />
		<path fill="#AAE1F9" d="M72,34L72,34c-26.5,0-48,21.5-48,48v256c0-26.5,21.5-48,48-48c20.6,0,38.2,13,45,31.3c0,0,0,0,0,0.1 c0.2,0.7,0.7,1.1,1.5,1.1c0.8,0,1.5-0.7,1.5-1.5V82C120,55.5,98.5,34,72,34z" />
	</g>
	<g fill="#1190D4">
		<path d="M170.4,161.1h-17.8c-4.7,0-8.5-3.8-8.5-8.5v0c0-4.7,3.8-8.5,8.5-8.5h17.8c4.7,0,8.5,3.8,8.5,8.5v0C178.9,157.3,175.1,161.1,170.4,161.1z" />
		<path opacity="0.75" d="M447.5,161.1H205.3c-4.7,0-8.5-3.8-8.5-8.5v0c0-4.7,3.8-8.5,8.5-8.5h242.2c4.7,0,8.5,3.8,8.5,8.5v0C456,157.3,452.2,161.1,447.5,161.1z" />
		<path opacity="0.5" d="M291.5,196h-86.2c-4.7,0-8.5-3.8-8.5-8.5v0c0-4.7,3.8-8.5,8.5-8.5h86.2c4.7,0,8.5,3.8,8.5,8.5v0C300,192.2,296.2,196,291.5,196z" />
		<path d="M170.4,196h-17.8c-4.7,0-8.5-3.8-8.5-8.5v0c0-4.7,3.8-8.5,8.5-8.5h17.8c4.7,0,8.5,3.8,8.5,8.5v0C178.9,192.2,175.1,196,170.4,196z" />
		<path d="M170.4,230.2h-17.8c-4.7,0-8.5-3.8-8.5-8.5v0c0-4.7,3.8-8.5,8.5-8.5h17.8c4.7,0,8.5,3.8,8.5,8.5v0C178.9,226.3,175.1,230.2,170.4,230.2z" />
		<path opacity="0.75" d="M291.5,230.2h-86.2c-4.7,0-8.5-3.8-8.5-8.5v0c0-4.7,3.8-8.5,8.5-8.5h86.2c4.7,0,8.5,3.8,8.5,8.5v0C300,226.3,296.2,230.2,291.5,230.2z" />
		<path opacity="0.5" d="M412.5,230.2h-86.9c-4.7,0-8.5-3.8-8.5-8.5v0c0-4.7,3.8-8.5,8.5-8.5h86.9c4.7,0,8.5,3.8,8.5,8.5v0C421.1,226.3,417.3,230.2,412.5,230.2z" />
		<path d="M170.4,265.1h-17.8c-4.7,0-8.5-3.8-8.5-8.5v0c0-4.7,3.8-8.5,8.5-8.5h17.8c4.7,0,8.5,3.8,8.5,8.5v0C178.9,261.3,175.1,265.1,170.4,265.1z" />
		<path opacity="0.25" d="M239.5,265.1h-35.7c-4.7,0-8.5-3.8-8.5-8.5v0c0-4.7,3.8-8.5,8.5-8.5h35.7c4.7,0,8.5,3.8,8.5,8.5v0C248,261.3,244.2,265.1,239.5,265.1z" />
		<path d="M170.4,299.3h-17.8c-4.7,0-8.5-3.8-8.5-8.5v0c0-4.7,3.8-8.5,8.5-8.5h17.8c4.7,0,8.5,3.8,8.5,8.5v0C178.9,295.4,175.1,299.3,170.4,299.3z" />
		<path opacity="0.25" d="M239.5,299.3h-35.7c-4.7,0-8.5-3.8-8.5-8.5v0c0-4.7,3.8-8.5,8.5-8.5h35.7c4.7,0,8.5,3.8,8.5,8.5v0C248,295.4,244.2,299.3,239.5,299.3z" />
		<path d="M170.4,335.5h-17.8c-4.7,0-8.5-3.8-8.5-8.5l0,0c0-4.7,3.8-8.5,8.5-8.5h17.8c4.7,0,8.5,3.8,8.5,8.5l0,0C178.9,331.7,175.1,335.5,170.4,335.5z" />
		<path opacity="0.75" d="M291.5,335.5h-86.2c-4.7,0-8.5-3.8-8.5-8.5l0,0c0-4.7,3.8-8.5,8.5-8.5h86.2c4.7,0,8.5,3.8,8.5,8.5l0,0C300,331.7,296.2,335.5,291.5,335.5z" />
	</g>
	<path fill="#F2F2F2" d="M438,258c-0.5-0.5-1.1-0.8-1.8-0.9c-4-0.4-18.6-0.8-35.9,15c-17.5,15.9-14.5,38.7-13.3,44.7c0.2,1-0.1,2-0.8,2.7L261,436.6c-0.1,0.1-0.1,0.1-0.2,0.2c-1.1,1.3-11.2,14.5,1.9,27.6c13.1,13.1,25.4,3.9,26.7,2.9c0.1-0.1,0.1-0.1,0.2-0.2l128-116.2c0.7-0.7,1.7-1,2.7-0.8c6,1.2,28.8,4.2,44.7-13.3c15.7-17.3,15.4-31.9,15-35.9c-0.1-0.7-0.4-1.3-0.9-1.8l-6.4-6.4c-1.2-1.2-3.1-1.2-4.2,0l-25.3,25.3c-1.2,1.2-3.1,1.2-4.2,0l-19.8-19.8c-1.2-1.2-1.2-3.1,0-4.2l25.3-25.3c1.2-1.2,1.2-3.1,0-4.2L438,258z" />
</svg>